<?xml version="1.0" encoding="utf-8"?>
<!-- Generator: Adobe Illustrator 21.1.0, SVG Export Plug-In . SVG Version: 6.00 Build 0)  -->
<svg version="1.1" xmlns="http://www.w3.org/2000/svg" xmlns:xlink="http://www.w3.org/1999/xlink" x="0px" y="0px"
	 viewBox="0 0 108.3 38.1" style="enable-background:new 0 0 108.3 38.1;" xml:space="preserve">
<style type="text/css">
	.st0{fill:#69AA72;}
	.st1{fill:#6C6D70;}
	.st2{fill:#FFFFFF;}
	.st3{display:none;}
	.st4{display:inline;fill:#69AA72;}
	.st5{display:inline;}
</style>
<g id="Capa_1">
	<g>
		<polygon class="st0" points="105.2,35.7 45.2,35.7 48.4,27.7 105.2,27.7 		"/>
		<g>
			<path class="st1" d="M6.9,2.5v22.7H3.1V2.5H6.9z"/>
			<path class="st1" d="M28,13.8c0-3.1,1.2-5.7,3.5-7.9c2.3-2.2,5.1-3.3,8.4-3.3c3.2,0,6,1.1,8.3,3.3c2.3,2.2,3.5,4.9,3.5,8
				c0,3.1-1.2,5.8-3.5,8c-2.3,2.2-5.2,3.3-8.5,3.3c-2.9,0-5.5-1-7.9-2.9C29.3,20.1,28,17.3,28,13.8z M31.8,13.8
				c0,2.3,0.8,4.2,2.4,5.7c1.6,1.5,3.5,2.2,5.6,2.2c2.3,0,4.2-0.8,5.8-2.3c1.6-1.5,2.4-3.4,2.4-5.6c0-2.2-0.8-4.1-2.3-5.6
				C44.1,6.7,42.2,6,39.9,6c-2.3,0-4.2,0.8-5.7,2.3C32.6,9.7,31.8,11.6,31.8,13.8z"/>
			<path class="st1" d="M92.1,11.7h9.2l0-9.1h3.8v22.6l-3.8,0l0-10h-9.2l0,10h-3.8V2.6h3.8L92.1,11.7z"/>
			<path class="st1" d="M80.5,2.6c-3.8,0-6.8,1.3-9.2,4c-1.9,2.2-2.9,4.7-2.9,7.4c0,3.1,1.1,5.7,3.5,7.9c2.3,2.2,5.1,3.3,8.4,3.3
				c2.2,0,4.2-0.5,6.2-1.6v-0.4v-3.6v-0.5c-0.5,0.4-1.4,1.1-1.9,1.4c-0.5,0.3-1,0.6-1.4,0.7c-0.8,0.4-1.8,0.5-3,0.5
				c-2.2,0-4.1-0.8-5.7-2.3c-1.5-1.5-2.3-3.4-2.3-5.6c0-2.2,0.8-4.1,2.3-5.6c1.5-1.5,3.4-2.3,5.7-2.3c2,0,4.4,1,6.3,2.6V8.1V4.7V4.2
				C84.5,3.2,82.5,2.6,80.5,2.6z"/>
			<path class="st1" d="M20.5,2.6c-3.8,0-6.8,1.3-9.2,4c-1.9,2.2-2.9,4.7-2.9,7.4c0,3.1,1.1,5.7,3.5,7.9c2.3,2.2,5.1,3.3,8.4,3.3
				c2.2,0,4.2-0.5,6.2-1.6v-0.4v-3.6v-0.5c-0.5,0.4-1.4,1.1-1.9,1.4c-0.5,0.3-1,0.6-1.4,0.7c-0.8,0.4-1.8,0.5-3,0.5
				c-2.2,0-4.1-0.8-5.7-2.3c-1.5-1.5-2.3-3.4-2.3-5.6c0-2.2,0.8-4.1,2.3-5.6c1.5-1.5,3.4-2.3,5.7-2.3c2,0,4.4,1,6.3,2.6V8.1V4.7V4.2
				C24.6,3.2,22.6,2.6,20.5,2.6z"/>
			<g>
				<polygon class="st0" points="61.9,6 60.2,2.4 49.4,25.2 59.7,25.2 59.7,22 54.3,22 				"/>
				<polygon class="st0" points="64,22 69.3,22 70.7,25.2 64,25.2 				"/>
				<polygon class="st0" points="61.9,14.4 59.9,20 63.8,20 				"/>
			</g>
		</g>
		<g>
			<path class="st2" d="M52.5,32.6c0,0.4-0.1,0.7-0.4,0.9c-0.2,0.2-0.6,0.3-1.1,0.3h-1v-4.2h0.8c0.4,0,0.7,0.1,0.9,0.3
				c0.2,0.2,0.3,0.5,0.3,0.8c0,0.2-0.1,0.4-0.2,0.6c-0.1,0.2-0.3,0.2-0.4,0.3c0.3,0,0.5,0.2,0.7,0.3C52.4,32.1,52.5,32.3,52.5,32.6z
				 M51.6,30.7c0-0.2-0.1-0.4-0.2-0.5c-0.1-0.1-0.3-0.2-0.6-0.2h-0.4v1.4h0.3c0.3,0,0.5-0.1,0.6-0.2C51.6,31.1,51.6,31,51.6,30.7z
				 M52,32.6c0-0.3-0.1-0.5-0.3-0.6c-0.2-0.1-0.5-0.2-0.8-0.2h-0.4v1.5H51c0.4,0,0.6-0.1,0.8-0.2C51.9,33.1,52,32.9,52,32.6z"/>
			<path class="st2" d="M54.4,33.8h-0.5v-4.2h0.5V33.8z"/>
			<path class="st2" d="M57.5,33.8H56v-4.2h0.5v3.7h1.1V33.8z"/>
			<path class="st2" d="M62.3,33.8h-0.5l-0.5-1.3h-1.7l-0.5,1.3h-0.5l1.9-4.3L62.3,33.8z M61,32.1l-0.7-1.6l-0.7,1.6H61z"/>
			<path class="st2" d="M65.1,30h-1v3.7h-0.5V30h-1v-0.4h2.4V30z"/>
			<path class="st2" d="M68.5,33.8h-2.1v-4.2h2.1v0.4h-1.6v1.3h1.6v0.4h-1.6v1.6h1.6V33.8z"/>
			<path class="st2" d="M72.5,33.8h-0.6l-1.3-2h-0.1v2H70v-4.2h0.9c0.4,0,0.8,0.1,1,0.3c0.2,0.2,0.3,0.5,0.3,0.8
				c0,0.3-0.1,0.6-0.3,0.8c-0.2,0.2-0.5,0.3-0.8,0.3L72.5,33.8z M71.8,30.8c0-0.2-0.1-0.4-0.2-0.5c-0.2-0.1-0.4-0.2-0.7-0.2h-0.4
				v1.4h0.4c0.3,0,0.6-0.1,0.7-0.2C71.7,31.2,71.8,31,71.8,30.8z"/>
			<path class="st2" d="M77.2,33.8h-0.5l-0.5-1.3h-1.7l-0.5,1.3h-0.5l1.9-4.3L77.2,33.8z M76,32.1l-0.7-1.6l-0.7,1.6H76z"/>
			<path class="st2" d="M79.9,33.8h-1.6v-4.2h0.5v3.7h1.1V33.8z"/>
			<path class="st2" d="M82.6,32l1.3,1.8h-0.8L82,32.1h-0.1v1.7h-0.6v-4.2H82c0.5,0,0.9,0.1,1.2,0.3c0.3,0.2,0.4,0.5,0.4,0.9
				c0,0.3-0.1,0.5-0.3,0.8C83.1,31.8,82.9,32,82.6,32z M81.9,31.5h0.2c0.6,0,0.9-0.2,0.9-0.7c0-0.4-0.3-0.6-0.9-0.6h-0.2V31.5z"/>
			<path class="st2" d="M87.6,30.2h-1.7v1h1.6v0.6h-1.6v1.4h1.7v0.6h-2.3v-4.2h2.3V30.2z"/>
			<path class="st2" d="M91.5,30.2l-0.5,0.3c-0.1-0.2-0.2-0.3-0.3-0.3c-0.1-0.1-0.2-0.1-0.3-0.1c-0.2,0-0.3,0-0.4,0.1
				c-0.1,0.1-0.2,0.2-0.2,0.4c0,0.2,0.2,0.4,0.5,0.5l0.4,0.2c0.3,0.1,0.6,0.3,0.7,0.5c0.2,0.2,0.2,0.4,0.2,0.7
				c0,0.4-0.1,0.7-0.4,0.9c-0.3,0.3-0.6,0.4-1,0.4c-0.4,0-0.7-0.1-0.9-0.3c-0.2-0.2-0.4-0.5-0.4-0.9l0.6-0.1c0,0.2,0.1,0.4,0.2,0.5
				c0.1,0.2,0.3,0.3,0.6,0.3c0.2,0,0.4-0.1,0.5-0.2c0.1-0.1,0.2-0.3,0.2-0.5c0-0.1,0-0.2,0-0.2c0-0.1-0.1-0.1-0.1-0.2
				c0-0.1-0.1-0.1-0.2-0.2c-0.1-0.1-0.2-0.1-0.3-0.1l-0.4-0.2c-0.6-0.2-0.9-0.6-0.9-1.1c0-0.3,0.1-0.6,0.4-0.8
				c0.2-0.2,0.5-0.3,0.9-0.3C90.8,29.6,91.2,29.8,91.5,30.2z"/>
			<path class="st2" d="M95.4,30.2l-0.5,0.3c-0.1-0.2-0.2-0.3-0.3-0.3c-0.1-0.1-0.2-0.1-0.3-0.1c-0.2,0-0.3,0-0.4,0.1
				c-0.1,0.1-0.2,0.2-0.2,0.4c0,0.2,0.2,0.4,0.5,0.5l0.4,0.2c0.3,0.1,0.6,0.3,0.7,0.5c0.2,0.2,0.2,0.4,0.2,0.7
				c0,0.4-0.1,0.7-0.4,0.9c-0.3,0.3-0.6,0.4-1,0.4c-0.4,0-0.7-0.1-0.9-0.3c-0.2-0.2-0.4-0.5-0.4-0.9l0.6-0.1c0,0.2,0.1,0.4,0.2,0.5
				c0.1,0.2,0.3,0.3,0.6,0.3c0.2,0,0.4-0.1,0.5-0.2c0.1-0.1,0.2-0.3,0.2-0.5c0-0.1,0-0.2,0-0.2c0-0.1-0.1-0.1-0.1-0.2
				c0-0.1-0.1-0.1-0.2-0.2c-0.1-0.1-0.2-0.1-0.3-0.1l-0.4-0.2c-0.6-0.2-0.9-0.6-0.9-1.1c0-0.3,0.1-0.6,0.4-0.8
				c0.2-0.2,0.5-0.3,0.9-0.3C94.7,29.6,95.1,29.8,95.4,30.2z"/>
			<path class="st2" d="M99.3,30.2h-1.7v1h1.6v0.6h-1.6v1.4h1.7v0.6H97v-4.2h2.3V30.2z"/>
			<path class="st2" d="M102,30.2v3.6h-0.6v-3.6h-1v-0.6h2.5v0.6H102z"/>
		</g>
	</g>
</g>
<g id="Capa_2" class="st3">
	<rect x="-16.7" y="-51.8" class="st4" width="141.7" height="141.7"/>
	<g class="st5">
		<g>
			<path class="st2" d="M5.9,2.1v22.7H2.2V2.1H5.9z"/>
			<path class="st2" d="M27.1,13.3c0-3.1,1.2-5.7,3.5-7.9c2.3-2.2,5.1-3.3,8.4-3.3c3.2,0,6,1.1,8.3,3.3c2.3,2.2,3.5,4.9,3.5,8
				c0,3.1-1.2,5.8-3.5,8c-2.3,2.2-5.2,3.3-8.5,3.3c-2.9,0-5.5-1-7.9-2.9C28.4,19.6,27.1,16.8,27.1,13.3z M30.8,13.3
				c0,2.3,0.8,4.2,2.4,5.7c1.6,1.5,3.5,2.2,5.6,2.2c2.3,0,4.2-0.8,5.8-2.3c1.6-1.5,2.4-3.4,2.4-5.6c0-2.2-0.8-4.1-2.3-5.6
				c-1.5-1.5-3.5-2.3-5.7-2.3c-2.3,0-4.2,0.8-5.7,2.3C31.6,9.3,30.8,11.1,30.8,13.3z"/>
			<path class="st2" d="M91.1,11.2h9.2l0-9.1h3.8v22.6l-3.8,0l0-10h-9.2l0,10h-3.8V2.1h3.8L91.1,11.2z"/>
			<path class="st2" d="M79.5,2.2c-3.8,0-6.8,1.3-9.2,4c-1.9,2.2-2.9,4.7-2.9,7.4c0,3.1,1.1,5.7,3.5,7.9c2.3,2.2,5.1,3.3,8.4,3.3
				c2.2,0,4.2-0.5,6.2-1.6v-0.4v-3.6v-0.5c-0.5,0.4-1.4,1.1-1.9,1.4c-0.5,0.3-1,0.6-1.4,0.7c-0.8,0.4-1.8,0.5-3,0.5
				c-2.2,0-4.1-0.8-5.7-2.3c-1.5-1.5-2.3-3.4-2.3-5.6c0-2.2,0.8-4.1,2.3-5.6c1.5-1.5,3.4-2.3,5.7-2.3c2,0,4.4,1,6.3,2.6V7.6V4.2V3.7
				C83.5,2.7,81.6,2.2,79.5,2.2z"/>
			<path class="st2" d="M19.6,2.2c-3.8,0-6.8,1.3-9.2,4c-1.9,2.2-2.9,4.7-2.9,7.4c0,3.1,1.1,5.7,3.5,7.9c2.3,2.2,5.1,3.3,8.4,3.3
				c2.2,0,4.2-0.5,6.2-1.6v-0.4v-3.6v-0.5c-0.5,0.4-1.4,1.1-1.9,1.4c-0.5,0.3-1,0.6-1.4,0.7c-0.8,0.4-1.8,0.5-3,0.5
				c-2.2,0-4.1-0.8-5.7-2.3c-1.5-1.5-2.3-3.4-2.3-5.6c0-2.2,0.8-4.1,2.3-5.6c1.5-1.5,3.4-2.3,5.7-2.3c2,0,4.4,1,6.3,2.6V7.6V4.2V3.7
				C23.6,2.7,21.6,2.2,19.6,2.2z"/>
			<g>
				<polygon class="st2" points="60.9,5.5 59.2,1.9 48.4,24.7 58.7,24.7 58.7,21.6 53.4,21.6 				"/>
				<polygon class="st2" points="63.1,21.6 68.3,21.6 69.7,24.7 63.1,24.7 				"/>
				<polygon class="st2" points="60.9,13.9 59,19.5 62.8,19.5 				"/>
			</g>
		</g>
		<g>
			<path class="st2" d="M70.8,30.3c0-0.2-0.1-0.4-0.2-0.5c-0.2-0.1-0.4-0.2-0.7-0.2h-0.4v1.4h0.4c0.3,0,0.6-0.1,0.7-0.2
				C70.8,30.7,70.8,30.5,70.8,30.3z"/>
			<polygon class="st2" points="73.6,31.6 75,31.6 74.3,30 			"/>
			<polygon class="st2" points="58.7,31.6 60.1,31.6 59.4,30 			"/>
			<path class="st2" d="M50.5,30.8c0.1-0.1,0.2-0.3,0.2-0.5c0-0.2-0.1-0.4-0.2-0.5c-0.1-0.1-0.3-0.2-0.6-0.2h-0.4v1.4h0.3
				C50.1,30.9,50.3,30.9,50.5,30.8z"/>
			<path class="st2" d="M82,30.4c0-0.4-0.3-0.6-0.9-0.6h-0.2v1.3h0.2C81.7,31.1,82,30.8,82,30.4z"/>
			<path class="st2" d="M50,31.3h-0.4v1.5h0.5c0.4,0,0.6-0.1,0.8-0.2c0.2-0.1,0.2-0.3,0.2-0.6c0-0.3-0.1-0.5-0.3-0.6
				C50.6,31.4,50.3,31.3,50,31.3z"/>
			<path class="st2" d="M47.5,27.2l-3.2,8h60v-8H47.5z M51.2,33c-0.2,0.2-0.6,0.3-1.1,0.3h-1v-4.2h0.8c0.4,0,0.7,0.1,0.9,0.3
				c0.2,0.2,0.3,0.5,0.3,0.8c0,0.2-0.1,0.4-0.2,0.6c-0.1,0.2-0.3,0.2-0.4,0.3c0.3,0,0.5,0.2,0.7,0.3c0.2,0.2,0.3,0.4,0.3,0.7
				C51.5,32.5,51.4,32.8,51.2,33z M53.4,33.3h-0.5v-4.2h0.5V33.3z M56.6,33.3H55v-4.2h0.5v3.7h1.1V33.3z M60.8,33.3L60.3,32h-1.7
				L58,33.3h-0.5l1.9-4.3l1.9,4.3H60.8z M64.2,29.6h-1v3.7h-0.5v-3.7h-1v-0.4h2.4V29.6z M67.5,29.6h-1.6v1.3h1.6v0.4h-1.6v1.6h1.6
				v0.4h-2.1v-4.2h2.1V29.6z M70.9,33.3l-1.3-2h-0.1v2h-0.5v-4.2h0.9c0.4,0,0.8,0.1,1,0.3c0.2,0.2,0.3,0.5,0.3,0.8
				c0,0.3-0.1,0.6-0.3,0.8c-0.2,0.2-0.5,0.3-0.8,0.3l1.3,2H70.9z M75.7,33.3L75.2,32h-1.7l-0.5,1.3h-0.5l1.9-4.3l1.9,4.3H75.7z
				 M79,33.3h-1.6v-4.2h0.5v3.7H79V33.3z M82.2,33.3L81,31.6h-0.1v1.7h-0.6v-4.2H81c0.5,0,0.9,0.1,1.2,0.3c0.3,0.2,0.4,0.5,0.4,0.9
				c0,0.3-0.1,0.5-0.3,0.8c-0.2,0.2-0.4,0.3-0.7,0.4l1.3,1.8H82.2z M86.6,29.7h-1.7v1h1.6v0.6h-1.6v1.4h1.7v0.6h-2.3v-4.2h2.3V29.7z
				 M90.2,33c-0.3,0.3-0.6,0.4-1,0.4c-0.4,0-0.7-0.1-0.9-0.3c-0.2-0.2-0.4-0.5-0.4-0.9l0.6-0.1c0,0.2,0.1,0.4,0.2,0.5
				c0.1,0.2,0.3,0.3,0.6,0.3c0.2,0,0.4-0.1,0.5-0.2c0.1-0.1,0.2-0.3,0.2-0.5c0-0.1,0-0.2,0-0.2c0-0.1-0.1-0.1-0.1-0.2
				c0-0.1-0.1-0.1-0.2-0.2c-0.1-0.1-0.2-0.1-0.3-0.1L89,31.2c-0.6-0.2-0.9-0.6-0.9-1.1c0-0.3,0.1-0.6,0.4-0.8
				c0.2-0.2,0.5-0.3,0.9-0.3c0.5,0,0.9,0.2,1.1,0.7L90,30.1c-0.1-0.2-0.2-0.3-0.3-0.3c-0.1-0.1-0.2-0.1-0.3-0.1
				c-0.2,0-0.3,0-0.4,0.1c-0.1,0.1-0.2,0.2-0.2,0.4c0,0.2,0.2,0.4,0.5,0.5l0.4,0.2c0.3,0.1,0.6,0.3,0.7,0.5c0.2,0.2,0.2,0.4,0.2,0.7
				C90.6,32.4,90.5,32.8,90.2,33z M94.2,33c-0.3,0.3-0.6,0.4-1,0.4c-0.4,0-0.7-0.1-0.9-0.3c-0.2-0.2-0.4-0.5-0.4-0.9l0.6-0.1
				c0,0.2,0.1,0.4,0.2,0.5c0.1,0.2,0.3,0.3,0.6,0.3c0.2,0,0.4-0.1,0.5-0.2c0.1-0.1,0.2-0.3,0.2-0.5c0-0.1,0-0.2,0-0.2
				c0-0.1-0.1-0.1-0.1-0.2c0-0.1-0.1-0.1-0.2-0.2c-0.1-0.1-0.2-0.1-0.3-0.1l-0.4-0.2c-0.6-0.2-0.9-0.6-0.9-1.1
				c0-0.3,0.1-0.6,0.4-0.8c0.2-0.2,0.5-0.3,0.9-0.3c0.5,0,0.9,0.2,1.1,0.7l-0.5,0.3c-0.1-0.2-0.2-0.3-0.3-0.3
				c-0.1-0.1-0.2-0.1-0.3-0.1c-0.2,0-0.3,0-0.4,0.1c-0.1,0.1-0.2,0.2-0.2,0.4c0,0.2,0.2,0.4,0.5,0.5l0.4,0.2
				c0.3,0.1,0.6,0.3,0.7,0.5c0.2,0.2,0.2,0.4,0.2,0.7C94.5,32.4,94.4,32.8,94.2,33z M98.3,29.7h-1.7v1h1.6v0.6h-1.6v1.4h1.7v0.6H96
				v-4.2h2.3V29.7z M102,29.7h-1v3.6h-0.6v-3.6h-1v-0.6h2.5V29.7z"/>
		</g>
	</g>
</g>
</svg>
